<svg width="64" height="64" viewBox="0 0 64 64" fill="none" xmlns="http://www.w3.org/2000/svg">
<g clip-path="url(#clip0_2_2)">
<path d="M21.9432 27.125C21.8371 26.1326 21.3902 25.3598 20.6023 24.8068C19.822 24.2538 18.8068 23.9773 17.5568 23.9773C16.678 23.9773 15.9242 24.1098 15.2955 24.375C14.6667 24.6402 14.1856 25 13.8523 25.4545C13.5189 25.9091 13.3485 26.428 13.3409 27.0114C13.3409 27.4962 13.4508 27.9167 13.6705 28.2727C13.8977 28.6288 14.2045 28.9318 14.5909 29.1818C14.9773 29.4242 15.4053 29.6288 15.875 29.7955C16.3447 29.9621 16.8182 30.1023 17.2955 30.2159L19.4773 30.7614C20.3561 30.9659 21.2008 31.2424 22.0114 31.5909C22.8295 31.9394 23.5606 32.3788 24.2045 32.9091C24.8561 33.4394 25.3712 34.0795 25.75 34.8295C26.1288 35.5795 26.3182 36.4583 26.3182 37.4659C26.3182 38.8295 25.9697 40.0303 25.2727 41.0682C24.5758 42.0985 23.5682 42.9053 22.25 43.4886C20.9394 44.0644 19.3523 44.3523 17.4886 44.3523C15.678 44.3523 14.1061 44.072 12.7727 43.5114C11.447 42.9508 10.4091 42.1326 9.65909 41.0568C8.91667 39.9811 8.51515 38.6705 8.45455 37.125H12.6023C12.6629 37.9356 12.9129 38.6098 13.3523 39.1477C13.7917 39.6856 14.3636 40.0871 15.0682 40.3523C15.7803 40.6174 16.5758 40.75 17.4545 40.75C18.3712 40.75 19.1742 40.6136 19.8636 40.3409C20.5606 40.0606 21.1061 39.6742 21.5 39.1818C21.8939 38.6818 22.0947 38.0985 22.1023 37.4318C22.0947 36.8258 21.9167 36.3258 21.5682 35.9318C21.2197 35.5303 20.7311 35.197 20.1023 34.9318C19.4811 34.6591 18.7538 34.4167 17.9205 34.2045L15.2727 33.5227C13.3561 33.0303 11.8409 32.2841 10.7273 31.2841C9.62121 30.2765 9.06818 28.9394 9.06818 27.2727C9.06818 25.9015 9.43939 24.7008 10.1818 23.6705C10.9318 22.6402 11.9508 21.8409 13.2386 21.2727C14.5265 20.697 15.9848 20.4091 17.6136 20.4091C19.2652 20.4091 20.7121 20.697 21.9545 21.2727C23.2045 21.8409 24.1856 22.6326 24.8977 23.6477C25.6098 24.6553 25.9773 25.8144 26 27.125H21.9432ZM30.0767 20.7273H35.2358L42.1449 37.5909H42.4176L49.3267 20.7273H54.4858V44H50.4403V28.0114H50.2244L43.7926 43.9318H40.7699L34.3381 27.9773H34.1222V44H30.0767V20.7273Z" fill="#D9A566"/>
</g>
<defs>
<clipPath id="clip0_2_2">
<rect width="64" height="64" fill="white"/>
</clipPath>
</defs>
</svg>
